<?xml version="1.0" encoding="iso-8859-1"?>
<!-- Generator: Adobe Illustrator 18.0.0, SVG Export Plug-In . SVG Version: 6.00 Build 0)  -->
<!DOCTYPE svg PUBLIC "-//W3C//DTD SVG 1.1//EN" "http://www.w3.org/Graphics/SVG/1.1/DTD/svg11.dtd">
<svg version="1.1" id="Capa_1" xmlns="http://www.w3.org/2000/svg" xmlns:xlink="http://www.w3.org/1999/xlink" x="0px" y="0px"
	 viewBox="0 0 297.5 297.5" style="enable-background:new 0 0 297.5 297.5;" xml:space="preserve">
<g>
	<g id="XMLID_21_">
		<g>
			<rect x="60.785" y="117.86" style="fill:#80AAB8;" width="175.93" height="110.699"/>
			<path style="fill:#F77E21;" d="M269.325,85.25v175.92H28.165V85.25H269.325z M256.475,238.44V107.98
				c0-5.461-4.42-9.881-9.88-9.881H50.905c-5.46,0-9.891,4.42-9.891,9.881v130.46c0,5.46,4.431,9.89,9.891,9.89h195.689
				C252.055,248.33,256.475,243.9,256.475,238.44z"/>
			<path style="fill:#B85627;" d="M269.325,20.02V65.48H28.165V20.02H269.325z M256.475,42.75c0-5.46-4.42-9.88-9.88-9.88h-16.31
				c-5.46,0-9.88,4.42-9.88,9.88s4.42,9.88,9.88,9.88h16.31C252.055,52.63,256.475,48.21,256.475,42.75z M207.555,42.75
				c0-5.46-4.43-9.88-9.88-9.88h-16.31c-5.46,0-9.88,4.42-9.88,9.88s4.42,9.88,9.88,9.88h16.31
				C203.125,52.63,207.555,48.21,207.555,42.75z M158.635,42.75c0-5.46-4.43-9.88-9.89-9.88h-16.3c-5.46,0-9.891,4.42-9.891,9.88
				s4.431,9.88,9.891,9.88h16.3C154.205,52.63,158.635,48.21,158.635,42.75z M77.095,42.75c0-5.46-4.43-9.88-9.89-9.88h-16.3
				c-5.46,0-9.891,4.42-9.891,9.88s4.431,9.88,9.891,9.88h16.3C72.665,52.63,77.095,48.21,77.095,42.75z"/>
			<path d="M289.095,10.13v260.93c0,5.46-4.43,9.881-9.88,9.881h-22.74v6.43c0,5.45-4.42,9.88-9.88,9.88
				c-5.46,0-9.88-4.43-9.88-9.88v-6.43H60.785v6.43c0,5.45-4.43,9.88-9.88,9.88c-5.46,0-9.891-4.43-9.891-9.88v-6.43H18.285
				c-5.46,0-9.88-4.421-9.88-9.881V10.13c0-5.45,4.42-9.88,9.88-9.88h260.93C284.665,0.25,289.095,4.68,289.095,10.13z
				 M269.325,261.17V85.25H28.165v175.92H269.325z M269.325,65.48V20.02H28.165V65.48H269.325z"/>
			<path d="M256.475,107.98v130.46c0,5.46-4.42,9.89-9.88,9.89H50.905c-5.46,0-9.891-4.43-9.891-9.89V107.98
				c0-5.461,4.431-9.881,9.891-9.881h195.689C252.055,98.1,256.475,102.52,256.475,107.98z M236.715,228.56V117.86H60.785V228.56
				H236.715z"/>
			<path d="M246.595,32.87c5.46,0,9.88,4.42,9.88,9.88s-4.42,9.88-9.88,9.88h-16.31c-5.46,0-9.88-4.42-9.88-9.88
				s4.42-9.88,9.88-9.88H246.595z"/>
			<path d="M197.675,32.87c5.45,0,9.88,4.42,9.88,9.88s-4.43,9.88-9.88,9.88h-16.31c-5.46,0-9.88-4.42-9.88-9.88
				s4.42-9.88,9.88-9.88H197.675z"/>
			<path d="M148.745,32.87c5.46,0,9.89,4.42,9.89,9.88s-4.43,9.88-9.89,9.88h-16.3c-5.46,0-9.891-4.42-9.891-9.88
				s4.431-9.88,9.891-9.88H148.745z"/>
			<path d="M67.205,32.87c5.46,0,9.89,4.42,9.89,9.88s-4.43,9.88-9.89,9.88h-16.3c-5.46,0-9.891-4.42-9.891-9.88
				s4.431-9.88,9.891-9.88H67.205z"/>
		</g>
		<g>
		</g>
	</g>
</g>
<g>
</g>
<g>
</g>
<g>
</g>
<g>
</g>
<g>
</g>
<g>
</g>
<g>
</g>
<g>
</g>
<g>
</g>
<g>
</g>
<g>
</g>
<g>
</g>
<g>
</g>
<g>
</g>
<g>
</g>
</svg>
